<svg width="525" height="171" viewBox="0 0 525 171" fill="none" xmlns="http://www.w3.org/2000/svg">
<path d="M6.05244 13.264C5.23643 13.264 4.57644 13.492 4.07243 13.96C3.54443 14.428 3.23243 15.076 3.16043 15.904H4.13243C4.19244 15.328 4.38444 14.884 4.72044 14.572C5.04443 14.26 5.48844 14.116 6.06444 14.116C6.61643 14.116 7.06044 14.248 7.37244 14.536C7.66044 14.8 7.81644 15.172 7.81644 15.652C7.81644 16.132 7.66044 16.504 7.36044 16.768C7.06044 17.02 6.62844 17.152 6.05244 17.152H5.39243V17.92H6.08843C6.68844 17.92 7.14444 18.052 7.48044 18.34C7.81644 18.628 7.98444 19.024 7.98444 19.54C7.98444 20.044 7.80444 20.464 7.46844 20.8C7.09644 21.148 6.60444 21.328 5.99244 21.328C5.45243 21.328 5.00844 21.172 4.64844 20.884C4.22843 20.536 4.00043 20.02 3.97643 19.348H2.98043C3.05243 20.308 3.38843 21.04 4.00043 21.544C4.51643 21.952 5.17644 22.168 5.99244 22.168C6.88044 22.168 7.60044 21.916 8.15244 21.412C8.69244 20.92 8.96844 20.284 8.96844 19.504C8.96844 19 8.82444 18.58 8.53643 18.244C8.27244 17.908 7.88844 17.668 7.38444 17.512C8.32044 17.2 8.78844 16.552 8.78844 15.592C8.78844 14.872 8.53643 14.308 8.04444 13.888C7.54044 13.468 6.86844 13.264 6.05244 13.264ZM13.1637 13.264C12.1317 13.264 11.3637 13.708 10.8477 14.62C10.3917 15.388 10.1637 16.42 10.1637 17.716C10.1637 19.012 10.3917 20.044 10.8477 20.812C11.3637 21.712 12.1317 22.168 13.1637 22.168C14.1837 22.168 14.9517 21.712 15.4797 20.812C15.9357 20.044 16.1637 19.012 16.1637 17.716C16.1637 16.42 15.9357 15.388 15.4797 14.62C14.9517 13.708 14.1837 13.264 13.1637 13.264ZM13.1637 14.104C13.9317 14.104 14.4837 14.512 14.8197 15.34C15.0597 15.916 15.1917 16.708 15.1917 17.716C15.1917 18.712 15.0597 19.504 14.8197 20.092C14.4837 20.908 13.9317 21.328 13.1637 21.328C12.3957 21.328 11.8437 20.908 11.5077 20.092C11.2677 19.504 11.1477 18.712 11.1477 17.716C11.1477 16.708 11.2677 15.916 11.5077 15.34C11.8437 14.512 12.3957 14.104 13.1637 14.104ZM20.3591 13.264C19.3271 13.264 18.5591 13.708 18.0431 14.62C17.5871 15.388 17.3591 16.42 17.3591 17.716C17.3591 19.012 17.5871 20.044 18.0431 20.812C18.5591 21.712 19.3271 22.168 20.3591 22.168C21.3791 22.168 22.1471 21.712 22.6751 20.812C23.1311 20.044 23.3591 19.012 23.3591 17.716C23.3591 16.42 23.1311 15.388 22.6751 14.62C22.1471 13.708 21.3791 13.264 20.3591 13.264ZM20.3591 14.104C21.1271 14.104 21.6791 14.512 22.0151 15.34C22.2551 15.916 22.3871 16.708 22.3871 17.716C22.3871 18.712 22.2551 19.504 22.0151 20.092C21.6791 20.908 21.1271 21.328 20.3591 21.328C19.5911 21.328 19.0391 20.908 18.7031 20.092C18.4631 19.504 18.3431 18.712 18.3431 17.716C18.3431 16.708 18.4631 15.916 18.7031 15.34C19.0391 14.512 19.5911 14.104 20.3591 14.104ZM6.08843 49.264C5.22443 49.264 4.51643 49.552 3.98843 50.128C3.46043 50.692 3.18443 51.46 3.18443 52.42H4.16843C4.18044 51.664 4.36044 51.088 4.69643 50.704C5.00844 50.296 5.46444 50.104 6.05244 50.104C6.60444 50.104 7.04844 50.248 7.36044 50.536C7.67244 50.824 7.82844 51.22 7.82844 51.748C7.82844 52.3 7.60044 52.816 7.16843 53.284C6.94044 53.524 6.49644 53.872 5.82444 54.352C4.91244 54.976 4.30044 55.492 3.96443 55.876C3.38843 56.512 3.11243 57.22 3.11243 58H8.82444V57.124H4.32443C4.48044 56.548 5.10444 55.888 6.19643 55.156C7.08443 54.556 7.67244 54.088 7.97243 53.776C8.52444 53.176 8.81243 52.504 8.81243 51.76C8.81243 51.016 8.54844 50.404 8.04444 49.948C7.52843 49.492 6.88044 49.264 6.08843 49.264ZM13.1637 49.264C12.1317 49.264 11.3637 49.708 10.8477 50.62C10.3917 51.388 10.1637 52.42 10.1637 53.716C10.1637 55.012 10.3917 56.044 10.8477 56.812C11.3637 57.712 12.1317 58.168 13.1637 58.168C14.1837 58.168 14.9517 57.712 15.4797 56.812C15.9357 56.044 16.1637 55.012 16.1637 53.716C16.1637 52.42 15.9357 51.388 15.4797 50.62C14.9517 49.708 14.1837 49.264 13.1637 49.264ZM13.1637 50.104C13.9317 50.104 14.4837 50.512 14.8197 51.34C15.0597 51.916 15.1917 52.708 15.1917 53.716C15.1917 54.712 15.0597 55.504 14.8197 56.092C14.4837 56.908 13.9317 57.328 13.1637 57.328C12.3957 57.328 11.8437 56.908 11.5077 56.092C11.2677 55.504 11.1477 54.712 11.1477 53.716C11.1477 52.708 11.2677 51.916 11.5077 51.34C11.8437 50.512 12.3957 50.104 13.1637 50.104ZM20.3591 49.264C19.3271 49.264 18.5591 49.708 18.0431 50.62C17.5871 51.388 17.3591 52.42 17.3591 53.716C17.3591 55.012 17.5871 56.044 18.0431 56.812C18.5591 57.712 19.3271 58.168 20.3591 58.168C21.3791 58.168 22.1471 57.712 22.6751 56.812C23.1311 56.044 23.3591 55.012 23.3591 53.716C23.3591 52.42 23.1311 51.388 22.6751 50.62C22.1471 49.708 21.3791 49.264 20.3591 49.264ZM20.3591 50.104C21.1271 50.104 21.6791 50.512 22.0151 51.34C22.2551 51.916 22.3871 52.708 22.3871 53.716C22.3871 54.712 22.2551 55.504 22.0151 56.092C21.6791 56.908 21.1271 57.328 20.3591 57.328C19.5911 57.328 19.0391 56.908 18.7031 56.092C18.4631 55.504 18.3431 54.712 18.3431 53.716C18.3431 52.708 18.4631 51.916 18.7031 51.34C19.0391 50.512 19.5911 50.104 20.3591 50.104ZM7.50734 85.432C7.21934 85.756 6.88334 86.044 6.47534 86.308C6.06734 86.548 5.65934 86.716 5.27534 86.824V87.808C6.07934 87.568 6.75134 87.184 7.29134 86.632V94H8.27534V85.432H7.50734ZM13.1637 85.264C12.1317 85.264 11.3637 85.708 10.8477 86.62C10.3917 87.388 10.1637 88.42 10.1637 89.716C10.1637 91.012 10.3917 92.044 10.8477 92.812C11.3637 93.712 12.1317 94.168 13.1637 94.168C14.1837 94.168 14.9517 93.712 15.4797 92.812C15.9357 92.044 16.1637 91.012 16.1637 89.716C16.1637 88.42 15.9357 87.388 15.4797 86.62C14.9517 85.708 14.1837 85.264 13.1637 85.264ZM13.1637 86.104C13.9317 86.104 14.4837 86.512 14.8197 87.34C15.0597 87.916 15.1917 88.708 15.1917 89.716C15.1917 90.712 15.0597 91.504 14.8197 92.092C14.4837 92.908 13.9317 93.328 13.1637 93.328C12.3957 93.328 11.8437 92.908 11.5077 92.092C11.2677 91.504 11.1477 90.712 11.1477 89.716C11.1477 88.708 11.2677 87.916 11.5077 87.34C11.8437 86.512 12.3957 86.104 13.1637 86.104ZM20.3591 85.264C19.3271 85.264 18.5591 85.708 18.0431 86.62C17.5871 87.388 17.3591 88.42 17.3591 89.716C17.3591 91.012 17.5871 92.044 18.0431 92.812C18.5591 93.712 19.3271 94.168 20.3591 94.168C21.3791 94.168 22.1471 93.712 22.6751 92.812C23.1311 92.044 23.3591 91.012 23.3591 89.716C23.3591 88.42 23.1311 87.388 22.6751 86.62C22.1471 85.708 21.3791 85.264 20.3591 85.264ZM20.3591 86.104C21.1271 86.104 21.6791 86.512 22.0151 87.34C22.2551 87.916 22.3871 88.708 22.3871 89.716C22.3871 90.712 22.2551 91.504 22.0151 92.092C21.6791 92.908 21.1271 93.328 20.3591 93.328C19.5911 93.328 19.0391 92.908 18.7031 92.092C18.4631 91.504 18.3431 90.712 18.3431 89.716C18.3431 88.708 18.4631 87.916 18.7031 87.34C19.0391 86.512 19.5911 86.104 20.3591 86.104ZM20.3591 121.264C19.3271 121.264 18.5591 121.708 18.0431 122.62C17.5871 123.388 17.3591 124.42 17.3591 125.716C17.3591 127.012 17.5871 128.044 18.0431 128.812C18.5591 129.712 19.3271 130.168 20.3591 130.168C21.3791 130.168 22.1471 129.712 22.6751 128.812C23.1311 128.044 23.3591 127.012 23.3591 125.716C23.3591 124.42 23.1311 123.388 22.6751 122.62C22.1471 121.708 21.3791 121.264 20.3591 121.264ZM20.3591 122.104C21.1271 122.104 21.6791 122.512 22.0151 123.34C22.2551 123.916 22.3871 124.708 22.3871 125.716C22.3871 126.712 22.2551 127.504 22.0151 128.092C21.6791 128.908 21.1271 129.328 20.3591 129.328C19.5911 129.328 19.0391 128.908 18.7031 128.092C18.4631 127.504 18.3431 126.712 18.3431 125.716C18.3431 124.708 18.4631 123.916 18.7031 123.34C19.0391 122.512 19.5911 122.104 20.3591 122.104Z" fill="#B5BDC9"/>
<path d="M49.343 155.093V163.661H50.327V156.845H50.363L53.327 163.661H54.215L57.179 156.845H57.215V163.661H58.199V155.093H56.975L53.795 162.401H53.759L50.567 155.093H49.343ZM62.505 157.289C61.761 157.289 61.173 157.433 60.717 157.721C60.213 158.033 59.889 158.525 59.757 159.173L60.705 159.245C60.801 158.849 61.005 158.549 61.329 158.357C61.617 158.165 61.989 158.081 62.445 158.081C63.525 158.081 64.065 158.597 64.065 159.641V159.965L62.577 159.989C61.641 160.001 60.921 160.181 60.417 160.517C59.841 160.877 59.565 161.405 59.565 162.113C59.565 162.617 59.757 163.037 60.141 163.361C60.513 163.673 61.005 163.829 61.629 163.829C62.205 163.829 62.721 163.697 63.177 163.445C63.561 163.229 63.885 162.953 64.125 162.617V163.661H65.025V159.677C65.025 158.957 64.833 158.393 64.473 157.985C64.041 157.517 63.393 157.289 62.505 157.289ZM64.065 160.685V161.213C64.065 161.693 63.837 162.125 63.393 162.497C62.937 162.881 62.421 163.073 61.833 163.073C61.449 163.073 61.137 162.977 60.897 162.797C60.657 162.605 60.549 162.377 60.549 162.089C60.549 161.189 61.245 160.733 62.637 160.709L64.065 160.685ZM65.8241 157.457L68.2841 163.517L67.2161 166.037H68.2601L71.6561 157.457H70.6001L68.7641 162.353L66.8681 157.457H65.8241ZM76.9734 155.093L76.5174 159.821H77.4534C77.6214 159.485 77.8854 159.221 78.2214 159.053C78.5454 158.873 78.9054 158.789 79.3134 158.789C79.9374 158.789 80.4294 158.969 80.7774 159.353C81.1374 159.725 81.3294 160.253 81.3294 160.937C81.3294 161.537 81.1254 162.029 80.7414 162.413C80.3454 162.797 79.8534 162.989 79.2534 162.989C78.7254 162.989 78.2814 162.857 77.9454 162.605C77.5614 162.317 77.3454 161.897 77.2974 161.357H76.3254C76.3854 162.137 76.7094 162.761 77.3094 163.217C77.8374 163.625 78.4854 163.829 79.2414 163.829C80.0814 163.829 80.8014 163.565 81.3774 163.049C81.9894 162.497 82.3014 161.789 82.3014 160.925C82.3014 160.001 82.0374 159.281 81.5334 158.753C81.0294 158.237 80.3694 157.985 79.5534 157.985C79.1574 157.985 78.7974 158.045 78.4614 158.189C78.0894 158.333 77.7774 158.549 77.5374 158.837H77.4894L77.7774 155.969H81.9534V155.093H76.9734Z" fill="#B5BDC9"/>
<path d="M120.005 155.093V163.661H120.989V156.845H121.025L123.989 163.661H124.877L127.841 156.845H127.877V163.661H128.861V155.093H127.637L124.457 162.401H124.421L121.229 155.093H120.005ZM133.167 157.289C132.423 157.289 131.835 157.433 131.379 157.721C130.875 158.033 130.551 158.525 130.419 159.173L131.367 159.245C131.463 158.849 131.667 158.549 131.991 158.357C132.279 158.165 132.651 158.081 133.107 158.081C134.187 158.081 134.727 158.597 134.727 159.641V159.965L133.239 159.989C132.303 160.001 131.583 160.181 131.079 160.517C130.503 160.877 130.227 161.405 130.227 162.113C130.227 162.617 130.419 163.037 130.803 163.361C131.175 163.673 131.667 163.829 132.291 163.829C132.867 163.829 133.383 163.697 133.839 163.445C134.223 163.229 134.547 162.953 134.787 162.617V163.661H135.687V159.677C135.687 158.957 135.495 158.393 135.135 157.985C134.703 157.517 134.055 157.289 133.167 157.289ZM134.727 160.685V161.213C134.727 161.693 134.499 162.125 134.055 162.497C133.599 162.881 133.083 163.073 132.495 163.073C132.111 163.073 131.799 162.977 131.559 162.797C131.319 162.605 131.211 162.377 131.211 162.089C131.211 161.189 131.907 160.733 133.299 160.709L134.727 160.685ZM136.486 157.457L138.946 163.517L137.878 166.037H138.922L142.318 157.457H141.262L139.426 162.353L137.53 157.457H136.486ZM150.095 154.925C149.123 154.925 148.355 155.369 147.791 156.269C147.251 157.121 146.987 158.237 146.987 159.605C146.987 160.913 147.227 161.933 147.731 162.665C148.259 163.433 149.039 163.829 150.083 163.829C150.923 163.829 151.607 163.541 152.159 162.989C152.699 162.437 152.975 161.729 152.975 160.889C152.975 160.049 152.723 159.377 152.231 158.849C151.727 158.321 151.067 158.057 150.251 158.057C149.747 158.057 149.303 158.177 148.919 158.429C148.511 158.669 148.211 159.017 147.995 159.461H147.947C147.935 159.305 147.935 159.197 147.935 159.149C147.935 158.177 148.115 157.373 148.499 156.749C148.883 156.077 149.411 155.753 150.083 155.753C151.079 155.753 151.667 156.233 151.859 157.217H152.831C152.591 155.681 151.679 154.925 150.095 154.925ZM150.059 158.873C150.647 158.873 151.115 159.053 151.475 159.437C151.823 159.797 152.003 160.277 152.003 160.889C152.003 161.501 151.823 162.005 151.463 162.413C151.103 162.797 150.635 163.001 150.059 163.001C149.459 163.001 148.991 162.797 148.631 162.389C148.271 162.005 148.103 161.513 148.103 160.913C148.103 160.313 148.283 159.833 148.655 159.449C149.027 159.065 149.495 158.873 150.059 158.873Z" fill="#B5BDC9"/>
<path d="M191.536 155.093V163.661H192.52V156.845H192.556L195.52 163.661H196.408L199.372 156.845H199.408V163.661H200.392V155.093H199.168L195.988 162.401H195.952L192.76 155.093H191.536ZM204.698 157.289C203.954 157.289 203.366 157.433 202.91 157.721C202.406 158.033 202.082 158.525 201.95 159.173L202.898 159.245C202.994 158.849 203.198 158.549 203.522 158.357C203.81 158.165 204.182 158.081 204.638 158.081C205.718 158.081 206.258 158.597 206.258 159.641V159.965L204.77 159.989C203.834 160.001 203.114 160.181 202.61 160.517C202.034 160.877 201.758 161.405 201.758 162.113C201.758 162.617 201.95 163.037 202.334 163.361C202.706 163.673 203.198 163.829 203.822 163.829C204.398 163.829 204.914 163.697 205.37 163.445C205.754 163.229 206.078 162.953 206.318 162.617V163.661H207.218V159.677C207.218 158.957 207.026 158.393 206.666 157.985C206.234 157.517 205.586 157.289 204.698 157.289ZM206.258 160.685V161.213C206.258 161.693 206.03 162.125 205.586 162.497C205.13 162.881 204.614 163.073 204.026 163.073C203.642 163.073 203.33 162.977 203.09 162.797C202.85 162.605 202.742 162.377 202.742 162.089C202.742 161.189 203.438 160.733 204.83 160.709L206.258 160.685ZM208.017 157.457L210.477 163.517L209.409 166.037H210.453L213.849 157.457H212.793L210.957 162.353L209.061 157.457H208.017ZM218.314 155.093V155.993H222.934L219.742 163.661H220.786L223.942 155.897V155.093H218.314Z" fill="#B5BDC9"/>
<path d="M261.331 155.093V163.661H262.315V156.845H262.351L265.315 163.661H266.203L269.167 156.845H269.203V163.661H270.187V155.093H268.963L265.783 162.401H265.747L262.555 155.093H261.331ZM274.493 157.289C273.749 157.289 273.161 157.433 272.705 157.721C272.201 158.033 271.877 158.525 271.745 159.173L272.693 159.245C272.789 158.849 272.993 158.549 273.317 158.357C273.605 158.165 273.977 158.081 274.433 158.081C275.513 158.081 276.053 158.597 276.053 159.641V159.965L274.565 159.989C273.629 160.001 272.909 160.181 272.405 160.517C271.829 160.877 271.553 161.405 271.553 162.113C271.553 162.617 271.745 163.037 272.129 163.361C272.501 163.673 272.993 163.829 273.617 163.829C274.193 163.829 274.709 163.697 275.165 163.445C275.549 163.229 275.873 162.953 276.113 162.617V163.661H277.013V159.677C277.013 158.957 276.821 158.393 276.461 157.985C276.029 157.517 275.381 157.289 274.493 157.289ZM276.053 160.685V161.213C276.053 161.693 275.825 162.125 275.381 162.497C274.925 162.881 274.409 163.073 273.821 163.073C273.437 163.073 273.125 162.977 272.885 162.797C272.645 162.605 272.537 162.377 272.537 162.089C272.537 161.189 273.233 160.733 274.625 160.709L276.053 160.685ZM277.812 157.457L280.272 163.517L279.204 166.037H280.248L283.644 157.457H282.588L280.752 162.353L278.856 157.457H277.812ZM291.302 154.925C290.402 154.925 289.706 155.153 289.202 155.621C288.734 156.041 288.506 156.569 288.506 157.193C288.506 157.649 288.614 158.033 288.83 158.345C289.058 158.681 289.394 158.933 289.85 159.089V159.113C289.394 159.221 289.022 159.473 288.71 159.857C288.374 160.265 288.206 160.745 288.206 161.297C288.206 162.053 288.47 162.665 288.998 163.121C289.538 163.589 290.306 163.829 291.302 163.829C292.286 163.829 293.054 163.589 293.606 163.121C294.134 162.665 294.398 162.053 294.398 161.297C294.398 160.745 294.23 160.265 293.894 159.857C293.582 159.473 293.198 159.221 292.754 159.113V159.089C293.198 158.933 293.534 158.681 293.774 158.345C293.99 158.033 294.098 157.649 294.098 157.193C294.098 156.569 293.858 156.041 293.402 155.621C292.898 155.153 292.19 154.925 291.302 154.925ZM291.302 155.729C291.902 155.729 292.382 155.885 292.73 156.197C293.018 156.461 293.174 156.809 293.174 157.229C293.174 157.661 293.042 158.021 292.778 158.285C292.454 158.597 291.962 158.765 291.302 158.765C290.63 158.765 290.138 158.597 289.826 158.285C289.562 158.021 289.43 157.661 289.43 157.229C289.43 156.809 289.574 156.461 289.874 156.197C290.21 155.885 290.69 155.729 291.302 155.729ZM291.302 159.533C291.986 159.533 292.526 159.701 292.91 160.049C293.246 160.361 293.426 160.781 293.426 161.297C293.426 161.801 293.246 162.209 292.91 162.521C292.526 162.857 291.998 163.025 291.302 163.025C290.606 163.025 290.066 162.857 289.706 162.533C289.346 162.221 289.178 161.801 289.178 161.297C289.178 160.781 289.346 160.361 289.706 160.049C290.078 159.701 290.606 159.533 291.302 159.533Z" fill="#B5BDC9"/>
<path d="M331.993 155.093V163.661H332.977V156.845H333.013L335.977 163.661H336.865L339.829 156.845H339.865V163.661H340.849V155.093H339.625L336.445 162.401H336.409L333.217 155.093H331.993ZM345.155 157.289C344.411 157.289 343.823 157.433 343.367 157.721C342.863 158.033 342.539 158.525 342.407 159.173L343.355 159.245C343.451 158.849 343.655 158.549 343.979 158.357C344.267 158.165 344.639 158.081 345.095 158.081C346.175 158.081 346.715 158.597 346.715 159.641V159.965L345.227 159.989C344.291 160.001 343.571 160.181 343.067 160.517C342.491 160.877 342.215 161.405 342.215 162.113C342.215 162.617 342.407 163.037 342.791 163.361C343.163 163.673 343.655 163.829 344.279 163.829C344.855 163.829 345.371 163.697 345.827 163.445C346.211 163.229 346.535 162.953 346.775 162.617V163.661H347.675V159.677C347.675 158.957 347.483 158.393 347.123 157.985C346.691 157.517 346.043 157.289 345.155 157.289ZM346.715 160.685V161.213C346.715 161.693 346.487 162.125 346.043 162.497C345.587 162.881 345.071 163.073 344.483 163.073C344.099 163.073 343.787 162.977 343.547 162.797C343.307 162.605 343.199 162.377 343.199 162.089C343.199 161.189 343.895 160.733 345.287 160.709L346.715 160.685ZM348.475 157.457L350.935 163.517L349.867 166.037H350.911L354.307 157.457H353.251L351.415 162.353L349.519 157.457H348.475ZM361.868 154.925C361.028 154.925 360.332 155.201 359.792 155.765C359.24 156.317 358.976 157.013 358.976 157.865C358.976 158.693 359.216 159.365 359.708 159.881C360.212 160.421 360.872 160.697 361.7 160.697C362.204 160.697 362.648 160.565 363.032 160.325C363.428 160.073 363.74 159.725 363.956 159.293H364.004C364.004 159.437 364.016 159.545 364.016 159.605C364.016 160.565 363.824 161.369 363.452 162.005C363.056 162.665 362.528 163.001 361.868 163.001C360.86 163.001 360.272 162.509 360.092 161.537H359.12C359.348 163.061 360.26 163.829 361.856 163.829C362.816 163.829 363.584 163.373 364.16 162.485C364.688 161.621 364.964 160.517 364.964 159.149C364.964 157.829 364.712 156.797 364.208 156.077C363.68 155.309 362.9 154.925 361.868 154.925ZM361.892 155.753C362.48 155.753 362.96 155.957 363.32 156.365C363.668 156.749 363.848 157.241 363.848 157.841C363.848 158.429 363.656 158.921 363.296 159.305C362.912 159.689 362.444 159.881 361.892 159.881C361.292 159.881 360.824 159.689 360.476 159.317C360.116 158.957 359.948 158.465 359.948 157.865C359.948 157.241 360.116 156.737 360.476 156.341C360.836 155.945 361.304 155.753 361.892 155.753Z" fill="#B5BDC9"/>
<path d="M400.799 155.093V163.661H401.783V156.845H401.819L404.783 163.661H405.671L408.635 156.845H408.671V163.661H409.655V155.093H408.431L405.251 162.401H405.215L402.023 155.093H400.799ZM413.961 157.289C413.217 157.289 412.629 157.433 412.173 157.721C411.669 158.033 411.345 158.525 411.213 159.173L412.161 159.245C412.257 158.849 412.461 158.549 412.785 158.357C413.073 158.165 413.445 158.081 413.901 158.081C414.981 158.081 415.521 158.597 415.521 159.641V159.965L414.033 159.989C413.097 160.001 412.377 160.181 411.873 160.517C411.297 160.877 411.021 161.405 411.021 162.113C411.021 162.617 411.213 163.037 411.597 163.361C411.969 163.673 412.461 163.829 413.085 163.829C413.661 163.829 414.177 163.697 414.633 163.445C415.017 163.229 415.341 162.953 415.581 162.617V163.661H416.481V159.677C416.481 158.957 416.289 158.393 415.929 157.985C415.497 157.517 414.849 157.289 413.961 157.289ZM415.521 160.685V161.213C415.521 161.693 415.293 162.125 414.849 162.497C414.393 162.881 413.877 163.073 413.289 163.073C412.905 163.073 412.593 162.977 412.353 162.797C412.113 162.605 412.005 162.377 412.005 162.089C412.005 161.189 412.701 160.733 414.093 160.709L415.521 160.685ZM417.28 157.457L419.74 163.517L418.672 166.037H419.716L423.112 157.457H422.056L420.22 162.353L418.324 157.457H417.28ZM429.929 155.093C429.641 155.417 429.305 155.705 428.897 155.969C428.489 156.209 428.081 156.377 427.697 156.485V157.469C428.501 157.229 429.173 156.845 429.713 156.293V163.661H430.697V155.093H429.929ZM435.585 154.925C434.553 154.925 433.785 155.369 433.269 156.281C432.813 157.049 432.585 158.081 432.585 159.377C432.585 160.673 432.813 161.705 433.269 162.473C433.785 163.373 434.553 163.829 435.585 163.829C436.605 163.829 437.373 163.373 437.901 162.473C438.357 161.705 438.585 160.673 438.585 159.377C438.585 158.081 438.357 157.049 437.901 156.281C437.373 155.369 436.605 154.925 435.585 154.925ZM435.585 155.765C436.353 155.765 436.905 156.173 437.241 157.001C437.481 157.577 437.613 158.369 437.613 159.377C437.613 160.373 437.481 161.165 437.241 161.753C436.905 162.569 436.353 162.989 435.585 162.989C434.817 162.989 434.265 162.569 433.929 161.753C433.689 161.165 433.569 160.373 433.569 159.377C433.569 158.369 433.689 157.577 433.929 157.001C434.265 156.173 434.817 155.765 435.585 155.765Z" fill="#B5BDC9"/>
<path d="M472.098 155.093V163.661H473.082V156.845H473.118L476.082 163.661H476.97L479.934 156.845H479.97V163.661H480.954V155.093H479.73L476.55 162.401H476.514L473.322 155.093H472.098ZM485.26 157.289C484.516 157.289 483.928 157.433 483.472 157.721C482.968 158.033 482.644 158.525 482.512 159.173L483.46 159.245C483.556 158.849 483.76 158.549 484.084 158.357C484.372 158.165 484.744 158.081 485.2 158.081C486.28 158.081 486.82 158.597 486.82 159.641V159.965L485.332 159.989C484.396 160.001 483.676 160.181 483.172 160.517C482.596 160.877 482.32 161.405 482.32 162.113C482.32 162.617 482.512 163.037 482.896 163.361C483.268 163.673 483.76 163.829 484.384 163.829C484.96 163.829 485.476 163.697 485.932 163.445C486.316 163.229 486.64 162.953 486.88 162.617V163.661H487.78V159.677C487.78 158.957 487.588 158.393 487.228 157.985C486.796 157.517 486.148 157.289 485.26 157.289ZM486.82 160.685V161.213C486.82 161.693 486.592 162.125 486.148 162.497C485.692 162.881 485.176 163.073 484.588 163.073C484.204 163.073 483.892 162.977 483.652 162.797C483.412 162.605 483.304 162.377 483.304 162.089C483.304 161.189 484 160.733 485.392 160.709L486.82 160.685ZM488.58 157.457L491.04 163.517L489.972 166.037H491.016L494.412 157.457H493.356L491.52 162.353L489.624 157.457H488.58ZM501.229 155.093C500.941 155.417 500.605 155.705 500.197 155.969C499.789 156.209 499.381 156.377 498.997 156.485V157.469C499.801 157.229 500.473 156.845 501.013 156.293V163.661H501.997V155.093H501.229ZM506.045 155.093C505.757 155.417 505.421 155.705 505.013 155.969C504.605 156.209 504.197 156.377 503.813 156.485V157.469C504.617 157.229 505.289 156.845 505.829 156.293V163.661H506.813V155.093H506.045Z" fill="#B5BDC9"/>
<path d="M0.998047 36L525 36" stroke="#929292" stroke-width="0.3"/>
<path d="M0.998047 73L525 73" stroke="#929292" stroke-width="0.3"/>
<path d="M0.998047 109L525 109" stroke="#929292" stroke-width="0.3"/>
<path d="M48.6572 6V137" stroke="#929292" stroke-width="0.3"/>
<path d="M85.5869 6V137" stroke="#929292" stroke-width="0.3"/>
<path d="M122.517 6V137" stroke="#929292" stroke-width="0.3"/>
<path d="M159.446 6V137" stroke="#929292" stroke-width="0.3"/>
<path d="M196.376 6V137" stroke="#929292" stroke-width="0.3"/>
<path d="M233.306 6V137" stroke="#929292" stroke-width="0.3"/>
<path d="M270.235 6V137" stroke="#929292" stroke-width="0.3"/>
<path d="M307.165 6V137" stroke="#929292" stroke-width="0.3"/>
<path d="M344.095 6V137" stroke="#929292" stroke-width="0.3"/>
<path d="M381.024 6V137" stroke="#929292" stroke-width="0.3"/>
<path d="M417.954 6V137" stroke="#929292" stroke-width="0.3"/>
<path d="M454.884 6V137" stroke="#929292" stroke-width="0.3"/>
<path d="M497.802 6V137" stroke="#929292" stroke-width="0.3"/>
<path d="M49 117L118.5 9.5L149.5 51.5L195 23L220.5 41L270 6.5L320.5 44L346.5 76L497.5 16V138H49V117Z" fill="url(#paint0_linear_241_3328)"/>
<path d="M49 117L118.5 9.5L149.5 51.5L195 23L220.5 41L270 6.5L320.5 44L346.5 76L497.5 16" stroke="#2CBBA3" stroke-width="3"/>
<path d="M49 117L126 63.5L159.5 93L222 63.5L273 93L307.5 55L344.5 107L433.5 113.5L497.5 127V138H49V117Z" fill="url(#paint1_linear_241_3328)"/>
<path d="M49 117L126 63.5L159.5 93L222 63.5L273 93L307.5 55L344.5 107L433.5 113.5L497.5 127" stroke="#28EC9D" stroke-width="3"/>
<path d="M48.6572 6V137" stroke="#929292" stroke-width="0.3"/>
<path d="M85.5869 6V137" stroke="#929292" stroke-width="0.3"/>
<path d="M122.517 6V137" stroke="#929292" stroke-width="0.3"/>
<path d="M159.446 6V137" stroke="#929292" stroke-width="0.3"/>
<path d="M196.376 6V137" stroke="#929292" stroke-width="0.3"/>
<path d="M233.306 6V137" stroke="#929292" stroke-width="0.3"/>
<path d="M270.235 6V137" stroke="#929292" stroke-width="0.3"/>
<path d="M307.165 6V137" stroke="#929292" stroke-width="0.3"/>
<path d="M344.095 6V137" stroke="#929292" stroke-width="0.3"/>
<path d="M381.024 6V137" stroke="#929292" stroke-width="0.3"/>
<path d="M417.954 6V137" stroke="#929292" stroke-width="0.3"/>
<path d="M454.884 6V137" stroke="#929292" stroke-width="0.3"/>
<path d="M497.802 6V137" stroke="#929292" stroke-width="0.3"/>
<defs>
<linearGradient id="paint0_linear_241_3328" x1="279.5" y1="138" x2="280" y2="86" gradientUnits="userSpaceOnUse">
<stop stop-color="#23907E" stop-opacity="0"/>
<stop offset="1" stop-color="#23907E"/>
</linearGradient>
<linearGradient id="paint1_linear_241_3328" x1="279.5" y1="138" x2="280" y2="86" gradientUnits="userSpaceOnUse">
<stop stop-color="#25BA7E" stop-opacity="0"/>
<stop offset="1" stop-color="#25BA7E"/>
</linearGradient>
</defs>
</svg>
