<svg width="23" height="23" viewBox="0 0 23 23" fill="none" xmlns="http://www.w3.org/2000/svg">
<path fill-rule="evenodd" clip-rule="evenodd" d="M6.25007 4.00006C5.00741 4.00006 4.00003 5.00745 4.00003 6.25012C4.00003 7.4928 5.00741 8.50019 6.25007 8.50019C7.49273 8.50019 8.5001 7.4928 8.5001 6.25012C8.5001 5.00745 7.49273 4.00006 6.25007 4.00006ZM2 6.25012C2 3.90284 3.90282 2 6.25007 2C8.59731 2 10.5001 3.90284 10.5001 6.25012C10.5001 8.5974 8.59731 10.5002 6.25007 10.5002C3.90282 10.5002 2 8.5974 2 6.25012Z" fill="#ECECEC"/>
<path fill-rule="evenodd" clip-rule="evenodd" d="M16.7501 4.00006C15.5074 4.00006 14.5 5.00745 14.5 6.25012C14.5 7.4928 15.5074 8.50019 16.7501 8.50019C17.9927 8.50019 19.0001 7.4928 19.0001 6.25012C19.0001 5.00745 17.9927 4.00006 16.7501 4.00006ZM12.5 6.25012C12.5 3.90284 14.4028 2 16.7501 2C19.0973 2 21.0001 3.90284 21.0001 6.25012C21.0001 8.5974 19.0973 10.5002 16.7501 10.5002C14.4028 10.5002 12.5 8.5974 12.5 6.25012Z" fill="#ECECEC"/>
<path fill-rule="evenodd" clip-rule="evenodd" d="M6.25007 14.5001C5.00741 14.5001 4.00003 15.5075 4.00003 16.7501C4.00003 17.9928 5.00741 19.0002 6.25007 19.0002C7.49273 19.0002 8.5001 17.9928 8.5001 16.7501C8.5001 15.5075 7.49273 14.5001 6.25007 14.5001ZM2 16.7501C2 14.4029 3.90282 12.5 6.25007 12.5C8.59731 12.5 10.5001 14.4029 10.5001 16.7501C10.5001 19.0974 8.59731 21.0002 6.25007 21.0002C3.90282 21.0002 2 19.0974 2 16.7501Z" fill="#ECECEC"/>
<path fill-rule="evenodd" clip-rule="evenodd" d="M16.7501 14.5001C15.5074 14.5001 14.5 15.5075 14.5 16.7501C14.5 17.9928 15.5074 19.0002 16.7501 19.0002C17.9927 19.0002 19.0001 17.9928 19.0001 16.7501C19.0001 15.5075 17.9927 14.5001 16.7501 14.5001ZM12.5 16.7501C12.5 14.4029 14.4028 12.5 16.7501 12.5C19.0973 12.5 21.0001 14.4029 21.0001 16.7501C21.0001 19.0974 19.0973 21.0002 16.7501 21.0002C14.4028 21.0002 12.5 19.0974 12.5 16.7501Z" fill="#ECECEC"/>
</svg>
