<svg width="176" height="42" viewBox="0 0 176 42" fill="none" xmlns="http://www.w3.org/2000/svg">
<path d="M4.05406 24.1204C4.47686 25.6121 5.36982 27.2111 6.49017 28.78C5.51469 28.3146 4.58463 27.5893 3.75492 26.7029C2.41403 25.2704 1.40619 23.4908 0.948869 21.9399C0.719905 21.1634 0.639891 20.4813 0.698544 19.948C0.756757 19.4187 0.941556 19.0958 1.18809 18.914C1.43801 18.7297 1.8798 18.5955 2.64962 18.7172C3.2376 18.8102 3.97665 19.0476 4.8846 19.4792C4.42142 19.9673 4.10776 20.5307 3.93766 21.1551C3.68282 22.0904 3.76579 23.1034 4.05406 24.1204Z" stroke="white" stroke-width="1.36"/>
<path d="M8.03823 26.2968C7.39443 24.3046 7.19665 22.0099 8.01038 19.8887C9.15914 16.8942 12.433 13.9847 20.0498 12.8188C18.6782 16.8675 15.6597 19.0561 12.8929 21.0623C12.8612 21.0853 12.8295 21.1082 12.7979 21.1312C11.3234 22.2005 9.8683 23.2642 8.9246 24.5566C8.53194 25.0943 8.22841 25.6697 8.03823 26.2968Z" stroke="white" stroke-width="1.36"/>
<path d="M19.7686 19.2343C19.6439 22.7197 18.9538 24.5114 17.6266 25.6776C16.8682 26.344 15.8528 26.8511 14.48 27.3182C13.3004 27.7196 11.8996 28.0782 10.2249 28.4895C10.36 27.7797 10.7865 26.9615 11.4854 26.0613C12.432 24.8421 13.7744 23.6056 15.1672 22.4887C16.5549 21.3759 17.9673 20.4018 19.0351 19.7048C19.3038 19.5294 19.5503 19.3719 19.7686 19.2343Z" stroke="white" stroke-width="1.36"/>
<path d="M28.4034 29L33.4056 14.4776H35.3721L40.3743 29H38.8313L34.0813 15.3046H34.6662L29.9464 29H28.4034ZM30.6322 25.4803V24.0886H38.1354V25.4803H30.6322ZM42.3971 29V14.4776H48.0044C48.8179 14.4776 49.5272 14.6457 50.1323 14.9818C50.7374 15.318 51.2081 15.7718 51.5442 16.3433C51.8804 16.9081 52.0485 17.5334 52.0485 18.2191C52.0485 18.999 51.84 19.6949 51.4232 20.3067C51.0064 20.9118 50.4483 21.332 49.7491 21.5674L49.7289 21.0732C50.6702 21.3421 51.4098 21.8128 51.9476 22.4851C52.4855 23.1574 52.7544 23.9709 52.7544 24.9257C52.7544 25.7661 52.5763 26.4922 52.2199 27.104C51.8636 27.7091 51.3627 28.1764 50.7173 28.5058C50.0718 28.8353 49.3222 29 48.4683 29H42.3971ZM43.8897 27.578H48.1052C48.6969 27.578 49.228 27.4738 49.6987 27.2654C50.1693 27.0502 50.5391 26.7477 50.808 26.3577C51.0837 25.9678 51.2215 25.4971 51.2215 24.9458C51.2215 24.408 51.0971 23.9239 50.8484 23.4936C50.5996 23.0633 50.2601 22.7204 49.8298 22.4649C49.4062 22.2027 48.9221 22.0716 48.3775 22.0716H43.8897V27.578ZM43.8897 20.6698H47.9943C48.4582 20.6698 48.8818 20.5656 49.265 20.3572C49.6482 20.142 49.9508 19.8495 50.1727 19.4798C50.4013 19.11 50.5156 18.683 50.5156 18.199C50.5156 17.5132 50.2769 16.9551 49.7995 16.5249C49.3289 16.0946 48.7271 15.8794 47.9943 15.8794H43.8897V20.6698ZM54.9687 29V14.4776H60.576C60.7172 14.4776 60.8752 14.4843 61.05 14.4978C61.2315 14.5045 61.413 14.5247 61.5946 14.5583C62.3543 14.6726 62.9964 14.9381 63.5208 15.355C64.0519 15.7651 64.452 16.2828 64.7209 16.9081C64.9966 17.5334 65.1344 18.2259 65.1344 18.9856C65.1344 20.0815 64.8453 21.0328 64.2671 21.8396C63.6889 22.6464 62.8619 23.1541 61.7862 23.3625L61.2718 23.4835H56.4512V29H54.9687ZM63.7628 29L60.8987 23.0902L62.3207 22.5456L65.4672 29H63.7628ZM56.4512 22.0716H60.5356C60.6566 22.0716 60.7978 22.0649 60.9592 22.0514C61.1206 22.038 61.2786 22.0145 61.4332 21.9808C61.9307 21.8733 62.3375 21.6682 62.6535 21.3657C62.9762 21.0631 63.2149 20.7034 63.3695 20.2866C63.5309 19.8697 63.6116 19.4361 63.6116 18.9856C63.6116 18.5351 63.5309 18.1015 63.3695 17.6846C63.2149 17.2611 62.9762 16.898 62.6535 16.5954C62.3375 16.2929 61.9307 16.0878 61.4332 15.9803C61.2786 15.9466 61.1206 15.9265 60.9592 15.9198C60.7978 15.9063 60.6566 15.8996 60.5356 15.8996H56.4512V22.0716ZM68.0965 29V14.4776H69.579V29H68.0965ZM78.6837 29.3026C77.2382 29.3026 76.0179 28.9832 75.0229 28.3445C74.0278 27.699 73.2748 26.8082 72.7638 25.6719C72.2529 24.5357 71.9974 23.2247 71.9974 21.7388C71.9974 20.2529 72.2529 18.9419 72.7638 17.8056C73.2748 16.6694 74.0278 15.7819 75.0229 15.1432C76.0179 14.4978 77.2382 14.175 78.6837 14.175C80.3713 14.175 81.7496 14.6087 82.8186 15.476C83.8876 16.3366 84.6204 17.493 85.0171 18.9453L83.5044 19.3386C83.1951 18.1889 82.6404 17.2779 81.8403 16.6055C81.0403 15.9332 79.9881 15.597 78.6837 15.597C77.5475 15.597 76.6029 15.8559 75.8499 16.3736C75.0968 16.8913 74.5287 17.614 74.1455 18.5419C73.769 19.463 73.574 20.5286 73.5606 21.7388C73.5538 22.949 73.7387 24.0146 74.1152 24.9357C74.4985 25.8568 75.07 26.5796 75.8297 27.104C76.5961 27.6217 77.5475 27.8806 78.6837 27.8806C79.9881 27.8806 81.0403 27.5444 81.8403 26.8721C82.6404 26.193 83.1951 25.282 83.5044 24.139L85.0171 24.5323C84.6204 25.9846 83.8876 27.1444 82.8186 28.0117C81.7496 28.8723 80.3713 29.3026 78.6837 29.3026ZM93.3235 29.3026C91.878 29.3026 90.6577 28.9832 89.6627 28.3445C88.6676 27.699 87.9146 26.8082 87.4036 25.6719C86.8927 24.5357 86.6372 23.2247 86.6372 21.7388C86.6372 20.2529 86.8927 18.9419 87.4036 17.8056C87.9146 16.6694 88.6676 15.7819 89.6627 15.1432C90.6577 14.4978 91.878 14.175 93.3235 14.175C94.7758 14.175 95.9961 14.4978 96.9844 15.1432C97.9794 15.7819 98.7325 16.6694 99.2434 17.8056C99.7611 18.9419 100.02 20.2529 100.02 21.7388C100.02 23.2247 99.7611 24.5357 99.2434 25.6719C98.7325 26.8082 97.9794 27.699 96.9844 28.3445C95.9961 28.9832 94.7758 29.3026 93.3235 29.3026ZM93.3235 27.8806C94.4598 27.8806 95.4078 27.6217 96.1675 27.104C96.9272 26.5863 97.4954 25.8669 97.8719 24.9458C98.2551 24.018 98.4467 22.949 98.4467 21.7388C98.4467 20.5286 98.2551 19.463 97.8719 18.5419C97.4954 17.6208 96.9272 16.9014 96.1675 16.3837C95.4078 15.866 94.4598 15.6038 93.3235 15.597C92.1873 15.597 91.2427 15.8559 90.4897 16.3736C89.7366 16.8913 89.1685 17.614 88.7853 18.5419C88.4088 19.463 88.2172 20.5286 88.2104 21.7388C88.2037 22.949 88.3886 24.0146 88.7651 24.9357C89.1484 25.8501 89.7198 26.5695 90.4796 27.0939C91.2393 27.6116 92.1873 27.8738 93.3235 27.8806ZM107.284 29.3026C106.269 29.3026 105.354 29.1345 104.541 28.7983C103.734 28.4554 103.065 27.9713 102.534 27.3461C102.009 26.7208 101.667 25.9779 101.505 25.1173L103.018 24.8651C103.26 25.8064 103.771 26.546 104.551 27.0838C105.331 27.615 106.262 27.8806 107.344 27.8806C108.057 27.8806 108.696 27.7696 109.261 27.5478C109.825 27.3192 110.269 26.9964 110.592 26.5796C110.914 26.1628 111.076 25.6686 111.076 25.0971C111.076 24.7206 111.009 24.4012 110.874 24.139C110.74 23.8701 110.561 23.6482 110.34 23.4734C110.118 23.2986 109.876 23.1541 109.613 23.0398C109.351 22.9187 109.096 22.8213 108.847 22.7473L105.166 21.648C104.722 21.5203 104.312 21.3589 103.936 21.164C103.559 20.9623 103.23 20.7236 102.947 20.4479C102.672 20.1655 102.457 19.8361 102.302 19.4596C102.147 19.0831 102.07 18.6528 102.07 18.1687C102.07 17.3485 102.285 16.6392 102.715 16.0408C103.146 15.4424 103.734 14.9818 104.48 14.6591C105.227 14.3364 106.077 14.1784 107.032 14.1851C108 14.1851 108.864 14.3566 109.624 14.6995C110.39 15.0424 111.022 15.5332 111.52 16.1719C112.017 16.8039 112.347 17.5535 112.508 18.4208L110.955 18.7032C110.854 18.0712 110.622 17.5233 110.259 17.0594C109.896 16.5954 109.432 16.2391 108.867 15.9903C108.309 15.7349 107.694 15.6038 107.022 15.597C106.369 15.597 105.788 15.708 105.277 15.9298C104.773 16.145 104.373 16.4408 104.077 16.8173C103.781 17.1938 103.633 17.6241 103.633 18.1082C103.633 18.599 103.768 18.9923 104.036 19.2881C104.312 19.584 104.648 19.8159 105.045 19.984C105.448 20.1521 105.838 20.2899 106.215 20.3975L109.059 21.2345C109.355 21.3152 109.701 21.4329 110.098 21.5875C110.501 21.7354 110.891 21.9506 111.267 22.233C111.651 22.5086 111.967 22.8717 112.215 23.3221C112.464 23.7726 112.589 24.3441 112.589 25.0366C112.589 25.7089 112.454 26.3107 112.185 26.8418C111.923 27.373 111.55 27.8201 111.066 28.1831C110.588 28.5462 110.027 28.8218 109.382 29.0101C108.743 29.2051 108.044 29.3026 107.284 29.3026Z" fill="white"/>
</svg>
