<svg width="25" height="25" viewBox="0 0 25 25" fill="none" xmlns="http://www.w3.org/2000/svg">
<mask id="mask0_14_1255" style="mask-type:luminance" maskUnits="userSpaceOnUse" x="0" y="0" width="25" height="25">
<path d="M25 0H0V25H25V0Z" fill="white"/>
</mask>
<g mask="url(#mask0_14_1255)">
<path d="M21.875 11.1978C21.875 9.74169 21.875 8.75323 21.6371 8.17895C21.32 7.41324 20.7116 6.80488 19.9459 6.48771C19.3716 6.24984 18.6435 6.24984 17.1875 6.24984C16.116 6.24984 15.0446 6.24984 13.9731 6.24984C13.7975 6.24984 13.7097 6.24984 13.6251 6.24524C12.9142 6.20666 12.2377 5.92647 11.7077 5.45106C11.6446 5.39446 11.5825 5.33237 11.4583 5.20817C11.3341 5.08397 11.272 5.02188 11.209 4.96529C10.679 4.48987 10.0025 4.20968 9.2916 4.1711C9.20699 4.1665 9.11917 4.1665 8.94353 4.1665C8.67069 4.1665 8.39784 4.1665 8.125 4.1665C6.37483 4.1665 5.49975 4.1665 4.83128 4.50711C4.24327 4.80671 3.76521 5.28477 3.4656 5.87279C3.125 6.54125 3.125 7.41634 3.125 9.1665C3.125 11.3887 3.125 13.6109 3.125 15.8332C3.125 17.5834 3.125 18.4584 3.4656 19.1269C3.76521 19.7149 4.24327 20.193 4.83128 20.4925C5.49975 20.8332 6.37483 20.8332 8.125 20.8332C9.58333 20.8332 11.0417 20.8332 12.5 20.8332" stroke="#ECECEC" stroke-width="2.08333" stroke-linecap="round"/>
<path d="M3.125 11.4585C3.125 11.4585 3.125 14.3752 3.125 15.8335C3.125 17.5837 3.125 18.4587 3.4656 19.1272C3.76521 19.7153 4.24327 20.1933 4.83128 20.4929C5.49975 20.8335 6.37483 20.8335 8.125 20.8335C11.0417 20.8335 13.9583 20.8335 16.875 20.8335C18.6252 20.8335 19.5002 20.8335 20.1687 20.4929C20.7568 20.1933 21.2348 19.7153 21.5344 19.1272C21.7105 18.7816 21.7955 17.1338 21.8366 15.4209C21.875 13.8203 21.875 12.163 21.875 11.4585H3.125Z" stroke="#ECECEC" stroke-width="2.08333" stroke-linecap="round" stroke-linejoin="round"/>
</g>
</svg>
